<?xml version="1.0" standalone="no"?>
<!DOCTYPE svg PUBLIC "-//W3C//DTD SVG 20010904//EN"
 "http://www.w3.org/TR/2001/REC-SVG-20010904/DTD/svg10.dtd">
<svg version="1.0" xmlns="http://www.w3.org/2000/svg"
 width="549.000000pt" height="408.000000pt" viewBox="0 0 549.000000 408.000000"
 preserveAspectRatio="xMidYMid meet">

<g transform="translate(0.000000,408.000000) scale(0.100000,-0.100000)"
fill="#ffffff" stroke="none">
<path d="M740 3894 c0 -20 147 -327 160 -334 8 -4 229 -85 490 -180 261 -95
479 -176 484 -181 11 -10 -1 -59 -15 -59 -6 0 -185 64 -397 141 -422 155 -522
190 -522 184 0 -5 102 -230 129 -285 l23 -45 379 -139 c209 -77 381 -142 383
-145 2 -3 6 -18 10 -33 5 -21 3 -28 -8 -28 -8 0 -169 56 -357 125 -189 69
-346 124 -350 123 -9 -3 126 -307 144 -325 7 -7 185 -75 395 -152 303 -111
393 -147 426 -175 23 -19 67 -49 97 -66 l54 -32 -73 67 c-81 75 -143 158 -192
255 -53 105 -71 181 -77 320 -5 108 -2 138 17 215 41 163 127 310 248 422 32
29 53 53 49 53 -16 0 -103 -65 -165 -124 l-62 -59 -583 211 c-320 117 -606
221 -634 232 -29 11 -53 17 -53 14z"/>
<path d="M3953 3667 l-632 -230 -74 69 c-40 38 -93 80 -117 93 -44 24 -44 24
28 -48 125 -127 201 -263 237 -427 24 -105 16 -290 -15 -389 -47 -147 -127
-274 -237 -375 -56 -51 -62 -59 -33 -45 19 9 61 37 93 62 50 39 106 62 440
184 210 77 387 145 394 152 18 18 153 322 144 325 -4 1 -161 -54 -350 -123
-188 -69 -349 -125 -357 -125 -11 0 -13 7 -8 28 4 15 9 30 13 34 5 6 159 63
673 251 66 24 90 38 99 57 48 101 139 304 137 306 -2 1 -152 -52 -333 -117
-597 -217 -586 -214 -596 -198 -28 43 -23 45 485 230 269 98 493 182 497 186
11 13 152 323 148 327 -2 2 -288 -100 -636 -227z"/>
<path d="M2500 3640 c-132 -34 -234 -92 -325 -184 -90 -91 -132 -156 -172
-266 -25 -68 -27 -88 -28 -220 0 -127 3 -154 24 -215 39 -117 87 -193 181
-287 71 -71 102 -95 171 -127 115 -56 194 -74 314 -74 186 0 342 63 478 193
88 83 143 168 184 280 24 68 27 88 27 215 0 125 -3 149 -27 220 -63 190 -184
329 -362 415 -147 70 -314 88 -465 50z m-107 -89 c-165 -91 -280 -223 -349
-398 l-14 -38 5 35 c3 19 24 73 46 119 55 112 151 209 264 268 90 48 129 58
48 14z m522 -139 c28 -15 80 -56 116 -92 99 -98 151 -222 148 -358 -2 -107
-17 -124 -18 -21 0 54 -8 119 -17 150 -40 135 -137 255 -262 323 -37 21 -56
34 -42 30 14 -3 48 -18 75 -32z m-153 -3 c132 -28 249 -122 312 -251 112 -226
12 -501 -222 -611 -63 -30 -73 -32 -187 -32 -114 0 -124 2 -187 32 -166 78
-268 238 -268 419 0 288 268 503 552 443z m543 -611 c-24 -98 -80 -202 -146
-273 -57 -60 -145 -127 -186 -141 -10 -4 7 11 37 32 99 68 174 153 224 256 44
88 74 182 78 238 1 15 3 10 5 -12 2 -21 -3 -66 -12 -100z m-1080 -68 c57 -112
198 -221 331 -255 57 -15 58 -15 13 -10 -111 11 -243 89 -314 184 -43 60 -85
154 -84 191 0 19 3 16 13 -15 7 -22 25 -65 41 -95z"/>
<path d="M2536 3360 c-110 -39 -206 -126 -254 -228 -24 -51 -27 -69 -27 -168
0 -107 1 -112 38 -186 106 -216 354 -294 569 -181 132 69 209 191 216 343 8
179 -81 326 -245 402 -88 42 -210 49 -297 18z m278 -60 c21 -21 -88 -201 -112
-186 -17 10 -16 213 1 219 15 5 96 -18 111 -33z m-176 -77 c-2 -88 -6 -108
-18 -108 -16 0 -110 148 -110 172 0 18 56 42 98 43 l33 0 -3 -107z m-124 -43
c25 -44 46 -86 46 -95 0 -25 -35 -17 -108 25 -99 57 -101 60 -56 109 20 23 44
41 54 41 11 0 34 -28 64 -80z m421 40 c46 -47 44 -50 -57 -109 -74 -43 -108
-51 -108 -26 0 28 92 175 109 175 9 0 34 -18 56 -40z m-504 -147 c44 -25 83
-51 86 -56 14 -22 -32 -37 -113 -37 -102 0 -116 10 -102 72 9 43 24 68 39 68
5 0 46 -21 90 -47z m577 34 c6 -7 16 -33 21 -57 9 -38 8 -47 -6 -57 -24 -18
-174 -17 -199 1 -24 19 -18 25 78 81 81 48 91 51 106 32z m-283 -82 c56 -55
18 -149 -60 -149 -78 0 -116 94 -60 149 33 34 87 34 120 0z m-210 -95 c4 -6 2
-17 -4 -24 -18 -21 -152 -96 -172 -96 -22 0 -45 66 -40 118 1 15 206 17 216 2z
m520 0 c11 -18 -24 -120 -42 -120 -19 0 -156 75 -173 95 -6 8 -9 19 -5 25 8
13 212 14 220 0z m-475 -86 c0 -21 -75 -157 -95 -174 -12 -10 -21 -8 -50 14
-41 31 -61 64 -48 77 20 20 159 98 176 98 9 1 17 -6 17 -15z m319 -30 c45 -25
84 -50 87 -55 7 -12 -24 -56 -58 -80 -23 -17 -32 -18 -43 -9 -20 17 -95 154
-95 174 0 25 21 19 109 -30z m-241 -104 c1 -57 -1 -107 -7 -113 -14 -14 -121
20 -121 39 0 14 68 141 93 172 23 29 32 3 35 -98z m134 24 c26 -43 47 -87 48
-96 0 -13 -15 -22 -55 -33 -30 -9 -59 -14 -65 -10 -6 3 -10 50 -10 109 0 146
11 150 82 30z"/>
<path d="M3553 1854 c-55 -27 -63 -61 -63 -254 0 -264 6 -270 247 -270 129 0
152 3 180 20 55 33 58 47 58 250 0 208 -6 229 -70 256 -50 21 -308 19 -352 -2z
m286 -111 c14 -27 7 -279 -9 -298 -9 -11 -33 -15 -96 -15 -116 0 -114 -2 -114
174 0 78 3 146 7 149 3 4 50 7 104 7 83 0 100 -3 108 -17z"/>
<path d="M971 1838 c-5 -13 -46 -120 -91 -238 -45 -118 -86 -225 -91 -237 -8
-23 -7 -23 62 -23 l70 0 19 45 20 46 92 -3 93 -3 20 -42 19 -43 69 0 c51 0 68
3 65 13 -2 6 -47 123 -98 260 l-94 247 -73 0 c-67 0 -74 -2 -82 -22z m114
-218 c34 -101 35 -100 -29 -100 -30 0 -57 3 -59 8 -4 6 22 94 48 159 8 22 12
16 40 -67z"/>
<path d="M1400 1600 l0 -260 65 0 64 0 3 93 3 92 80 2 c44 1 92 2 108 2 26 1
27 3 27 51 l0 49 -107 3 -108 3 -3 58 c-3 54 -2 57 20 57 13 1 75 2 138 3
l115 2 3 53 3 52 -205 0 -206 0 0 -260z"/>
<path d="M1995 1848 c-2 -7 -45 -121 -95 -253 -49 -131 -90 -243 -90 -247 0
-4 31 -8 68 -8 l69 0 13 40 c16 48 27 52 134 48 l79 -3 16 -42 15 -43 68 0
c37 0 68 4 68 8 0 10 -33 101 -124 337 l-64 170 -76 3 c-56 2 -78 -1 -81 -10z
m114 -227 c32 -98 31 -101 -32 -101 -30 0 -56 3 -59 6 -5 5 22 95 47 157 10
25 19 13 44 -62z"/>
<path d="M2410 1645 c0 -314 1 -315 235 -315 234 0 235 1 235 315 l0 215 -65
0 -65 0 0 -199 c0 -238 3 -231 -101 -231 -115 0 -109 -12 -109 225 l0 205 -65
0 -65 0 0 -215z"/>
<path d="M2970 1805 l0 -55 68 1 c37 0 73 0 80 0 9 -1 12 -49 12 -206 l0 -205
65 0 65 0 0 205 0 205 64 0 c91 0 96 3 96 61 l0 49 -225 0 -225 0 0 -55z"/>
<path d="M4150 1853 c-42 -13 -60 -29 -74 -65 -20 -49 -20 -117 0 -167 23 -57
59 -71 182 -71 55 0 107 -3 116 -6 22 -8 21 -77 -1 -99 -14 -15 -33 -16 -160
-10 l-143 7 0 -45 c0 -43 1 -45 33 -50 17 -4 95 -9 173 -13 121 -6 145 -4 177
11 49 23 72 81 65 168 -10 115 -41 137 -199 137 -105 0 -129 10 -129 53 0 44
10 47 146 50 l129 2 3 53 3 52 -153 -1 c-84 0 -160 -3 -168 -6z"/>
<path d="M702 1143 c-41 -102 -122 -324 -122 -333 0 -5 19 -10 43 -10 36 0 44
4 59 30 16 29 20 30 82 30 63 0 66 -1 81 -30 14 -27 21 -30 60 -30 25 0 45 1
45 3 0 1 -31 83 -68 182 l-68 180 -50 3 c-48 3 -52 1 -62 -25z m89 -150 c9
-28 15 -54 11 -57 -11 -12 -82 -6 -82 7 0 25 34 107 44 104 5 -2 17 -26 27
-54z"/>
<path d="M1042 1005 c4 -205 0 -199 134 -203 190 -7 194 -3 194 218 l0 150
-45 0 -44 0 -3 -147 -3 -148 -49 -3 c-100 -6 -96 -12 -96 153 l0 145 -46 0
-45 0 3 -165z"/>
<path d="M1470 1135 c0 -35 0 -35 44 -35 79 0 76 5 76 -156 l0 -144 40 0 40 0
0 144 c0 161 -3 156 76 156 44 0 44 0 44 35 l0 35 -160 0 -160 0 0 -35z"/>
<path d="M1914 1147 c-28 -25 -29 -28 -32 -138 -4 -131 6 -181 43 -197 15 -7
74 -12 136 -12 103 0 111 1 134 25 24 23 25 29 25 158 0 183 2 181 -158 185
-115 3 -120 3 -148 -21z m212 -64 c14 -14 16 -31 12 -104 -3 -48 -8 -92 -12
-98 -10 -15 -129 -14 -144 1 -8 8 -12 46 -12 105 0 107 4 112 87 113 35 0 57
-5 69 -17z"/>
<path d="M2350 985 l0 -185 45 0 45 0 0 50 0 50 90 0 c83 0 93 2 115 25 23 22
25 32 25 107 -1 127 -16 138 -194 138 l-126 0 0 -185z m218 106 c9 -5 12 -25
10 -62 l-3 -54 -67 -3 -68 -3 0 59 c0 32 3 62 7 65 9 10 105 8 121 -2z"/>
<path d="M2855 1158 c-2 -7 -28 -74 -56 -148 -28 -74 -57 -152 -64 -172 l-14
-38 49 0 c42 0 50 3 56 23 10 32 22 37 92 37 62 0 64 -1 75 -30 10 -28 15 -30
59 -30 l48 0 -34 93 c-19 50 -50 133 -69 182 l-34 90 -52 3 c-35 2 -53 -1 -56
-10z m79 -148 c26 -67 22 -80 -24 -80 -26 0 -40 4 -40 13 0 23 31 107 40 107
4 0 15 -18 24 -40z"/>
<path d="M3198 1043 c-2 -71 -2 -154 0 -185 l3 -58 44 0 45 0 0 55 0 55 35 0
c38 0 47 -7 79 -65 20 -37 25 -40 69 -43 26 -2 47 -1 47 2 0 4 -13 27 -29 53
l-29 47 29 27 c27 25 29 32 29 102 0 42 -3 83 -6 92 -13 34 -58 45 -188 45
l-125 0 -3 -127z m210 51 c21 -6 23 -12 20 -58 l-3 -51 -67 -3 -68 -3 0 54 c0
29 3 57 7 60 8 9 80 9 111 1z"/>
<path d="M3610 1135 c0 -35 0 -35 44 -35 79 0 76 5 76 -156 l0 -144 40 0 40 0
0 144 c0 161 -3 156 76 156 44 0 44 0 44 35 l0 35 -160 0 -160 0 0 -35z"/>
<path d="M4030 985 l0 -185 145 0 145 0 0 35 0 34 -97 3 -98 3 0 35 0 35 78 3
77 3 0 34 0 34 -77 3 c-78 3 -78 3 -81 32 -2 16 2 32 10 37 7 5 52 9 101 9
l87 0 0 35 0 35 -145 0 -145 0 0 -185z"/>
<path d="M4463 1158 c-56 -27 -56 -168 0 -196 12 -7 58 -13 102 -14 l80 -3 0
-35 0 -35 -107 -3 -108 -3 0 -28 c0 -17 6 -31 16 -35 9 -3 67 -6 130 -6 110 0
116 1 141 26 23 23 25 31 21 91 -6 88 -23 103 -123 103 -89 0 -105 5 -105 36
0 33 30 46 108 44 37 -1 73 -1 80 -1 7 1 12 15 12 36 l0 35 -112 -1 c-62 0
-123 -5 -135 -11z"/>
</g>
</svg>
